<svg version="1.1" xmlns="http://www.w3.org/2000/svg" xmlns:xlink="http://www.w3.org/1999/xlink" x="0" y="0" viewBox="0 0 1280 1024" style="enable-background:new 0 0 1280 1024" xml:space="preserve"><style>.st1{clip-path:url(#SVGID_2_);fill:#fff}.st19{fill:#e84c3d}.st21{fill:#e8e8e8}.st24{fill:#fff}</style><defs><path id="SVGID_1_" d="M0 0h1280v1024H0z"/></defs><clipPath id="SVGID_2_"><use xlink:href="#SVGID_1_" style="overflow:visible"/></clipPath><linearGradient id="SVGID_3_" gradientUnits="userSpaceOnUse" x1="-29.196" y1="41.528" x2="1301.215" y2="976.861"><stop offset="0" style="stop-color:#0a0a99"/><stop offset=".079" style="stop-color:#2218b0"/><stop offset=".216" style="stop-color:#442cd2"/><stop offset=".345" style="stop-color:#5e3beb"/><stop offset=".462" style="stop-color:#6d44fa"/><stop offset=".557" style="stop-color:#7247ff"/><stop offset=".62" style="stop-color:#6e4cff"/><stop offset=".699" style="stop-color:#615cff"/><stop offset=".786" style="stop-color:#4c75ff"/><stop offset=".879" style="stop-color:#2f99ff"/><stop offset=".976" style="stop-color:#0ac6ff"/><stop offset="1" style="stop-color:#00d2ff"/></linearGradient><path style="clip-path:url(#SVGID_2_);fill:url(#SVGID_3_)" d="M0 0h1280v1024H0z"/><path class="st1" d="M1053.75 785.38l-2.54-2.54 2.54-2.54c.3-.3.3-.79 0-1.09-.3-.3-.79-.3-1.09 0l-2.54 2.54-2.54-2.54c-.3-.3-.79-.3-1.09 0-.3.3-.3.79 0 1.09l2.54 2.54-2.54 2.54c-.3.3-.3.79 0 1.09.3.3.79.3 1.09 0l2.54-2.54 2.54 2.54c.3.3.79.3 1.09 0 .3-.3.3-.78 0-1.09zM1251 694.97c0 2.45-1.99 4.44-4.44 4.44s-4.44-1.99-4.44-4.44 1.99-4.44 4.44-4.44 4.44 1.99 4.44 4.44zM297.43 488.56a4.436 4.436 0 01-6.27 0 4.436 4.436 0 010-6.27 4.448 4.448 0 016.28 0 4.445 4.445 0 01-.01 6.27zM1249.23 212.21c0 1.47-1.19 2.66-2.66 2.66-1.47 0-2.66-1.19-2.66-2.66a2.659 2.659 0 115.32 0z"/><linearGradient id="SVGID_4_" gradientUnits="userSpaceOnUse" x1="802.854" y1="-9258.943" x2="807.333" y2="-9258.943" gradientTransform="rotate(-90 5196.78 -4085.46)"><stop offset="0" style="stop-color:#fff"/><stop offset="1" style="stop-color:#fbe9f5"/></linearGradient><path d="M23.3 303.99c1.24 0 2.24 1 2.24 2.24 0 1.24-1 2.24-2.24 2.24-1.24 0-2.24-1-2.24-2.24 0-1.24 1-2.24 2.24-2.24z" style="clip-path:url(#SVGID_2_);fill:url(#SVGID_4_)"/><path class="st1" d="M1200.42 959.24c0 2.45-1.99 4.44-4.44 4.44s-4.44-1.99-4.44-4.44 1.99-4.44 4.44-4.44 4.44 1.99 4.44 4.44zM836.59 285.56c3.57-1.99 8.07-.72 10.06 2.85 1.99 3.57.72 8.07-2.85 10.06s-8.07.72-10.06-2.85c-1.99-3.56-.72-8.06 2.85-10.06zM858.73 636.68l-3.73-3.73 3.73-3.73c.44-.44.44-1.16 0-1.6-.44-.44-1.16-.44-1.6 0l-3.73 3.73-3.73-3.73c-.44-.44-1.16-.44-1.6 0s-.44 1.16 0 1.6l3.73 3.73-3.73 3.73c-.44.44-.44 1.16 0 1.6.44.44 1.16.44 1.6 0l3.73-3.73 3.73 3.73c.44.44 1.16.44 1.6 0 .44-.44.44-1.16 0-1.6zM106.56 50.82c3.57-1.99 8.07-.72 10.06 2.85 1.99 3.56.72 8.07-2.85 10.06-3.57 1.99-8.07.72-10.06-2.85-1.99-3.56-.72-8.06 2.85-10.06zM915.61 52.87l-.98 3.46-3.46-.98a.762.762 0 00-.95.53c-.12.41.12.84.53.95l3.46.98-.98 3.46c-.12.41.12.84.53.95.41.12.84-.12.95-.53l.98-3.46 3.46.98c.41.12.84-.12.95-.53a.762.762 0 00-.53-.95l-3.46-.98.98-3.46a.762.762 0 00-.53-.95.77.77 0 00-.95.53z"/><linearGradient id="SVGID_5_" gradientUnits="userSpaceOnUse" x1="-396.363" y1="441.729" x2="-251.071" y2="441.729" gradientTransform="translate(951.044)"><stop offset="0" style="stop-color:#fff"/><stop offset="1" style="stop-color:#bcbec0"/></linearGradient><path d="M560.13 513.44a3.18 3.18 0 01-4.51 0 3.18 3.18 0 010-4.51c1.25-1.25 144.36-139.84 144.36-139.84s-138.6 143.1-139.85 144.35z" style="clip-path:url(#SVGID_2_);fill:url(#SVGID_5_)"/><linearGradient id="SVGID_6_" gradientUnits="userSpaceOnUse" x1="178.074" y1="424.717" x2="353.121" y2="424.717" gradientTransform="translate(951.044)"><stop offset="0" style="stop-color:#fff"/><stop offset="1" style="stop-color:#bcbec0"/></linearGradient><path d="M1135.68 511.11a3.85 3.85 0 01-5.44 0 3.85 3.85 0 010-5.44c1.5-1.5 173.92-168.48 173.92-168.48s-166.97 172.42-168.48 173.92z" style="clip-path:url(#SVGID_2_);fill:url(#SVGID_6_)"/><linearGradient id="SVGID_7_" gradientUnits="userSpaceOnUse" x1="-962.761" y1="823.999" x2="-833.147" y2="823.999" gradientTransform="translate(951.044)"><stop offset="0" style="stop-color:#fff"/><stop offset="1" style="stop-color:#bcbec0"/></linearGradient><path d="M-6.86 887.97a2.855 2.855 0 01-4.03 0 2.855 2.855 0 010-4.03c1.11-1.11 128.78-124.75 128.78-124.75S-5.74 886.86-6.86 887.97z" style="clip-path:url(#SVGID_2_);fill:url(#SVGID_7_)"/><linearGradient id="SVGID_8_" gradientUnits="userSpaceOnUse" x1="1054.02" y1="441.276" x2="1073.659" y2="441.276"><stop offset="0" style="stop-color:#fff"/><stop offset="1" style="stop-color:#bcbec0"/></linearGradient><path d="M1067.96 439.89a3.59 3.59 0 01-2.67-2.75l-1.45-6.79-1.45 6.79a3.605 3.605 0 01-2.67 2.75l-5.7 1.38 5.7 1.38a3.59 3.59 0 012.67 2.75l1.45 6.79 1.45-6.79a3.605 3.605 0 012.67-2.75l5.7-1.38-5.7-1.38z" style="clip-path:url(#SVGID_2_);fill:url(#SVGID_8_)"/><linearGradient id="SVGID_9_" gradientUnits="userSpaceOnUse" x1="522.731" y1="104.639" x2="549.617" y2="104.639"><stop offset="0" style="stop-color:#fff"/><stop offset="1" style="stop-color:#bcbec0"/></linearGradient><path d="M541.82 102.75a4.93 4.93 0 01-3.66-3.77l-1.98-9.3-1.98 9.3a4.944 4.944 0 01-3.66 3.77l-7.8 1.89 7.8 1.89a4.93 4.93 0 013.66 3.77l1.98 9.3 1.98-9.3c.4-1.86 1.82-3.32 3.66-3.77l7.8-1.89-7.8-1.89z" style="clip-path:url(#SVGID_2_);fill:url(#SVGID_9_)"/><linearGradient id="SVGID_10_" gradientUnits="userSpaceOnUse" x1="625.177" y1="813.51" x2="643.707" y2="813.51"><stop offset="0" style="stop-color:#fff"/><stop offset="1" style="stop-color:#bcbec0"/></linearGradient><path d="M638.33 812.2a3.398 3.398 0 01-2.52-2.6l-1.36-6.41-1.37 6.41a3.398 3.398 0 01-2.52 2.6l-5.38 1.31 5.38 1.31c1.27.31 2.25 1.32 2.52 2.6l1.37 6.41 1.36-6.41a3.398 3.398 0 012.52-2.6l5.38-1.31-5.38-1.31z" style="clip-path:url(#SVGID_2_);fill:url(#SVGID_10_)"/><linearGradient id="SVGID_11_" gradientUnits="userSpaceOnUse" x1="367.539" y1="960.375" x2="386.07" y2="960.375"><stop offset="0" style="stop-color:#fff"/><stop offset="1" style="stop-color:#bcbec0"/></linearGradient><path d="M380.69 959.07a3.398 3.398 0 01-2.52-2.6l-1.36-6.41-1.36 6.41a3.398 3.398 0 01-2.52 2.6l-5.38 1.31 5.38 1.31c1.27.31 2.25 1.32 2.52 2.6l1.36 6.41 1.36-6.41a3.398 3.398 0 012.52-2.6l5.38-1.31-5.38-1.31z" style="clip-path:url(#SVGID_2_);fill:url(#SVGID_11_)"/><linearGradient id="SVGID_12_" gradientUnits="userSpaceOnUse" x1="485.84" y1="331.974" x2="500.66" y2="331.974"><stop offset="0" style="stop-color:#fff"/><stop offset="1" style="stop-color:#bcbec0"/></linearGradient><path d="M496.36 330.93a2.718 2.718 0 01-2.02-2.08l-1.09-5.12-1.09 5.12c-.22 1.02-1 1.83-2.02 2.08l-4.3 1.04 4.3 1.04c1.02.25 1.8 1.05 2.02 2.08l1.09 5.12 1.09-5.12c.22-1.02 1-1.83 2.02-2.08l4.3-1.04-4.3-1.04z" style="clip-path:url(#SVGID_2_);fill:url(#SVGID_12_)"/><linearGradient id="SVGID_13_" gradientUnits="userSpaceOnUse" x1="-756.196" y1="259.619" x2="-656.66" y2="259.619" gradientTransform="translate(951.044)"><stop offset=".024" style="stop-color:#1685c1"/><stop offset=".996" style="stop-color:#1667c1;stop-opacity:.5"/></linearGradient><path d="M215.85 305.78c-4.8 4.8-12.59 4.8-17.4 0-4.8-4.8-4.8-12.59 0-17.4 4.8-4.8 95.93-78.53 95.93-78.53s-73.72 91.13-78.53 95.93z" style="clip-path:url(#SVGID_2_);fill:url(#SVGID_13_)"/><linearGradient id="SVGID_14_" gradientUnits="userSpaceOnUse" x1="-703.611" y1="258.355" x2="-750.442" y2="303.384" gradientTransform="translate(951.044)"><stop offset=".013" style="stop-color:#82f2ec"/><stop offset="1" style="stop-color:#00c3c3"/></linearGradient><path d="M212.78 302.87c-3.15 3.15-8.26 3.15-11.42 0-3.15-3.15-3.15-8.26 0-11.42 3.15-3.15 45.79-34.37 45.79-34.37s-31.22 42.64-34.37 45.79z" style="clip-path:url(#SVGID_2_);fill:url(#SVGID_14_)"/><linearGradient id="SVGID_15_" gradientUnits="userSpaceOnUse" x1="-299.02" y1="960.657" x2="-198.425" y2="960.657" gradientTransform="translate(951.044)"><stop offset=".049" style="stop-color:#8e35c6"/><stop offset="1" style="stop-color:#5300af;stop-opacity:.5"/></linearGradient><path d="M673.25 1007.31c-4.86 4.86-12.73 4.86-17.58 0-4.86-4.86-4.86-12.73 0-17.58 4.86-4.86 96.95-79.37 96.95-79.37s-74.51 92.1-79.37 96.95z" style="clip-path:url(#SVGID_2_);fill:url(#SVGID_15_)"/><linearGradient id="SVGID_16_" gradientUnits="userSpaceOnUse" x1="-245.876" y1="959.379" x2="-293.205" y2="1004.888" gradientTransform="translate(951.044)"><stop offset=".066" style="stop-color:#ffc0e1"/><stop offset=".284" style="stop-color:#fdb8dd"/><stop offset=".613" style="stop-color:#f8a4d3"/><stop offset="1" style="stop-color:#ef83c3"/></linearGradient><path d="M670.14 1004.37a8.154 8.154 0 01-11.54 0 8.154 8.154 0 010-11.54c3.19-3.19 46.27-34.73 46.27-34.73s-31.54 43.09-34.73 46.27z" style="clip-path:url(#SVGID_2_);fill:url(#SVGID_16_)"/><linearGradient id="SVGID_17_" gradientUnits="userSpaceOnUse" x1="862.173" y1="888.578" x2="871.147" y2="888.578"><stop offset="0" style="stop-color:#fff"/><stop offset="1" style="stop-color:#bcbec0"/></linearGradient><path d="M871.15 888.58a4.49 4.49 0 11-8.98 0 4.49 4.49 0 018.98 0z" style="clip-path:url(#SVGID_2_);fill:url(#SVGID_17_)"/><linearGradient id="SVGID_18_" gradientUnits="userSpaceOnUse" x1="66.011" y1="119.598" x2="74.985" y2="119.598"><stop offset="0" style="stop-color:#fff"/><stop offset="1" style="stop-color:#bcbec0"/></linearGradient><path d="M74.98 119.6a4.49 4.49 0 11-4.49-4.49c2.49 0 4.49 2.01 4.49 4.49z" style="clip-path:url(#SVGID_2_);fill:url(#SVGID_18_)"/><linearGradient id="SVGID_19_" gradientUnits="userSpaceOnUse" x1="307.904" y1="740.616" x2="316.878" y2="740.616"><stop offset=".013" style="stop-color:#82f2ec"/><stop offset="1" style="stop-color:#00c3c3"/></linearGradient><path d="M316.88 740.62a4.49 4.49 0 11-8.98 0 4.49 4.49 0 018.98 0z" style="clip-path:url(#SVGID_2_);fill:url(#SVGID_19_)"/><linearGradient id="SVGID_20_" gradientUnits="userSpaceOnUse" x1="-300.533" y1="20.681" x2="-191.17" y2="20.681" gradientTransform="translate(951.044)"><stop offset="0" style="stop-color:#fff"/><stop offset="1" style="stop-color:#bcbec0"/></linearGradient><path d="M654.61 74.66c-.94.94-2.46.94-3.4 0s-.94-2.46 0-3.4S759.87-34 759.87-34 655.55 73.72 654.61 74.66z" style="clip-path:url(#SVGID_2_);fill:url(#SVGID_20_)"/><g id="Group_282" transform="rotate(-13 -950.94 4262.17)"><g id="Group_168" transform="translate(14 -15)"><path id="Path_72" class="st19" d="M1132.09 684.65l-53.81 10.05-8.31 21.83 77.87-14.59-15.75-17.29z"/><linearGradient id="Path_80_1_" gradientUnits="userSpaceOnUse" x1="691.473" y1="1336.694" x2="691.473" y2="1335.958" gradientTransform="matrix(301.5929 101.3926 69.6282 -439.1798 -300445.313 517760.219)"><stop offset="0" style="stop-color:#e84c3d"/><stop offset="1" style="stop-color:#c9c9c9;stop-opacity:.192"/></linearGradient><path id="Path_80" d="M1104.17 831.58l53.81-10.05 125.59 272.83s-2.71 46.57-113.81 57.39c-90.04 8.79-113.9-27.34-113.9-27.34l48.31-292.83z" style="opacity:.5;fill:url(#Path_80_1_);enable-background:new"/><path id="Path_246" class="st21" d="M1160.74 698.99l-102.21 19.13-16.81 36.91 148.01-27.73-28.99-28.31z"/><path id="Path_247" d="M1211.6 722.31l-193.22 36.23-28.99 48.89 266.94-49.95-44.73-35.17z" style="fill:#57b3ef"/><path id="Path_248" class="st21" d="M1224.06 788.87L1030.84 825l-41.45-17.58 266.94-49.95-32.27 31.4z"/><path id="Path_249" class="st19" d="M1157.98 821.43l-53.81 10.14-15.65-17.39 77.87-14.59-8.41 21.84z"/></g><g id="Group_175" transform="rotate(-10.02 2886.5 -5907.888)"><path id="Path_2" d="M-7.96 297.13v10.55l9.13 5.27 9.13-5.27v-10.55l-9.13-5.28-9.13 5.28z" style="fill:#e30c34"/><path id="Path_3" class="st24" d="M1.17 295.37l-6.09 3.52v3.51l3.04-1.75v7.03l3.04 1.76v-10.55l3.04-1.76-3.03-1.76z"/><path id="Path_4" class="st24" d="M4.22 300.64v7.04l3.04-1.76v-7.03l-.01-.01-3.03 1.76z"/></g></g></svg>
