<svg version="1.1" xmlns="http://www.w3.org/2000/svg" x="0" y="0" viewBox="0 0 300 56" style="enable-background:new 0 0 300 56" xml:space="preserve"><style>.st1{fill:#fff}</style><path style="fill:#e30c34" d="M2 14.85v26.3L24.78 54.3l22.77-13.15v-26.3L24.78 1.7z"/><path class="st1" d="M24.76 10.48L9.64 19.21v8.74l7.56-4.37v17.58l7.56 4.36V19.21l7.57-4.36zM32.37 23.62v17.53l7.59-4.38V19.23z"/><g><path d="M72.83 18.78h-7.58v-1.43h16.81v1.43h-7.58v22.37h-1.66V18.78zM85.82 18.2c0-.9.66-1.42 1.45-1.42.79 0 1.45.52 1.45 1.42 0 .83-.66 1.42-1.45 1.42-.79 0-1.45-.58-1.45-1.42zm.62 5.61h1.6v17.34h-1.6V23.81zM94.89 17.35h5.5c7.34 0 10.83 4.62 10.83 11.82s-3.48 11.97-10.79 11.97h-5.54V17.35zm5.34 22.39c6.45 0 9.25-4.36 9.25-10.57 0-6.2-2.8-10.41-9.25-10.41h-3.68v20.98h3.68zM116.7 17.35h6.43c4.78 0 7.84 1.81 7.84 5.79 0 2.48-1.29 4.46-3.68 5.19v.14c3.08.52 5.15 2.45 5.15 5.75 0 4.58-3.47 6.93-8.85 6.93h-6.9v-23.8zm5.77 10.47c4.88 0 6.86-1.72 6.86-4.53 0-3.33-2.3-4.56-6.67-4.56h-4.3v9.09h4.11zm.69 11.94c4.73 0 7.64-1.71 7.64-5.53 0-3.42-2.78-5.05-7.64-5.05h-4.8v10.57h4.8zM144.79 17.35h5.5c7.34 0 10.83 4.62 10.83 11.82s-3.48 11.97-10.79 11.97h-5.54V17.35zm5.34 22.39c6.45 0 9.25-4.36 9.25-10.57 0-6.2-2.8-10.41-9.25-10.41h-3.68v20.98h3.68zM165.18 36.83c0-3.85 3.47-5.69 11.19-6.54.05-2.66-.68-5.52-4.09-5.52-2.34 0-4.36 1.16-5.53 2.04l-.74-1.18c1.23-.87 3.63-2.25 6.45-2.25 4.11 0 5.5 2.98 5.5 6.69v11.08h-1.35l-.17-2.25h-.08c-1.77 1.43-3.88 2.69-6.15 2.69-2.74-.01-5.03-1.5-5.03-4.76zm11.19.58v-5.9c-7.12.82-9.56 2.48-9.56 5.24 0 2.49 1.68 3.44 3.68 3.44 1.99.01 3.74-.95 5.88-2.78zM182 39.19l.93-1.16c1.47 1.23 3.04 2.2 5.51 2.2 2.73 0 4.15-1.6 4.15-3.42 0-2.17-2.25-3.13-4.25-3.85-2.61-.93-5.53-1.99-5.53-4.95 0-2.5 1.98-4.61 5.59-4.61 1.86 0 3.69.77 4.95 1.8l-.86 1.15c-1.17-.87-2.4-1.58-4.14-1.58-2.7 0-3.93 1.56-3.93 3.16 0 1.98 2.04 2.73 4.11 3.51 2.69 1.02 5.66 1.91 5.66 5.29 0 2.61-2.09 4.89-5.84 4.89-2.57-.04-4.8-1.11-6.35-2.43zM198.78 15.17h1.6v7.54l-.03 3.82c1.81-1.8 3.61-3.16 6-3.16 3.58 0 5.24 2.17 5.24 6.65v11.12H210v-10.9c0-3.68-1.16-5.42-3.95-5.42-2.07 0-3.56 1.09-5.67 3.26v13.08h-1.6V15.17zM219.44 39.39h-.08l-.18 1.76h-1.33V15.17h1.6v7.54l-.08 3.38c1.75-1.48 3.86-2.72 5.97-2.72 4.65 0 6.94 3.48 6.94 8.84 0 5.89-3.55 9.36-7.64 9.36-1.66.01-3.57-.85-5.2-2.18zm11.16-7.16c0-4.26-1.52-7.44-5.52-7.44-1.72 0-3.61 1.01-5.64 2.86v10.28c1.89 1.63 3.79 2.23 5.11 2.23 3.53.01 6.05-3.23 6.05-7.93zM235.96 32.51c0-5.8 3.62-9.14 7.79-9.14s7.79 3.34 7.79 9.14c0 5.73-3.62 9.07-7.79 9.07s-7.79-3.33-7.79-9.07zm13.9 0c0-4.56-2.61-7.73-6.11-7.73-3.5 0-6.11 3.16-6.11 7.73s2.61 7.66 6.11 7.66c3.5 0 6.11-3.09 6.11-7.66zM254.96 36.83c0-3.85 3.47-5.69 11.19-6.54.05-2.66-.68-5.52-4.09-5.52-2.34 0-4.36 1.16-5.53 2.04l-.74-1.18c1.23-.87 3.63-2.25 6.45-2.25 4.11 0 5.5 2.98 5.5 6.69v11.08h-1.35l-.17-2.25h-.08c-1.77 1.43-3.88 2.69-6.15 2.69-2.75-.01-5.03-1.5-5.03-4.76zm11.18.58v-5.9c-7.12.82-9.56 2.48-9.56 5.24 0 2.49 1.68 3.44 3.68 3.44 1.99.01 3.74-.95 5.88-2.78zM273.93 23.81h1.35l.17 3.24h.08c1.17-2.13 2.87-3.67 4.93-3.67.63 0 1.15.08 1.72.36l-.36 1.44c-.59-.21-.9-.29-1.57-.29-1.56 0-3.41 1.18-4.73 4.46v11.79h-1.6V23.81zM283.57 32.51c0-5.6 3.55-9.14 7.69-9.14 2.08 0 3.5.79 5.23 2.13l-.09-3.18v-7.15h1.6v25.98h-1.35l-.17-2.25h-.08c-1.42 1.42-3.35 2.68-5.65 2.68-4.36 0-7.18-3.22-7.18-9.07zm12.83 4.8V27.02c-1.83-1.62-3.35-2.23-5.06-2.23-3.44 0-6.1 3.37-6.1 7.71 0 4.62 2.05 7.66 5.73 7.66 1.92.01 3.61-1 5.43-2.85z"/></g></svg>
